Coordinates
version=1
nRows=15
nColumns=34
inDegrees=yes

Units are S.I. units (second, meters, Newtons, ...)
If the header above contains a line with 'inDegrees', this indicates whether rotational values are in degrees (yes) or radians (no).

endheader
time	pelvis_tilt	pelvis_list	pelvis_rotation	pelvis_tx	pelvis_ty	pelvis_tz	hip_flexion_r	hip_adduction_r	hip_rotation_r	knee_angle_r	ankle_angle_r	subtalar_angle_r	mtp_angle_r	hip_flexion_l	hip_adduction_l	hip_rotation_l	knee_angle_l	ankle_angle_l	subtalar_angle_l	mtp_angle_l	lumbar_extension	lumbar_bending	lumbar_rotation	arm_flex_r	arm_add_r	arm_rot_r	elbow_flex_r	pro_sup_r	arm_flex_l	arm_add_l	arm_rot_l	elbow_flex_l	pro_sup_l
      2.73333330	      8.47018786	     -4.88074623	    -22.06401455	      2.77011249	      1.00474905	      0.83971595	     20.53626810	      1.98627942	      0.87672615	     30.15764385	     17.29413708	      8.12546920	      0.00000000	     15.52258031	     13.69061000	      1.65004902	     13.06204615	     -5.34284518	    -11.48692973	      0.00000000	    -14.21067099	    -10.19652410	     11.32651817	     23.86619106	      2.13934135	     24.77010034	     20.03793415	    118.50285615	     13.43828041	      7.40968783	     17.86851831	     24.33709765	    113.52142573
      2.75000000	      8.23681868	     -4.94176209	    -22.17670330	      2.76869918	      1.00374713	      0.83713307	     21.16062947	      1.88740672	      0.50187204	     30.37570904	     16.33973401	      8.48389949	      0.00000000	     15.69719829	     13.63385927	      1.60057731	     12.63349297	     -5.68750504	    -11.34765338	      0.00000000	    -14.45767100	    -10.07986565	     10.85774237	     24.72208632	      2.05460492	     24.36185179	     19.47084533	    118.50805800	     13.95571053	      7.49591947	     18.48699212	     24.74148209	    113.56241320
      2.76666670	      7.91505846	     -5.00156738	    -22.18176489	      2.76717239	      1.00256215	      0.83465913	     21.86793391	      1.79449887	     -0.11276095	     30.58562635	     15.45316976	      8.70805815	      0.00000000	     16.00807509	     13.57444266	      1.76029006	     12.31024775	     -6.11776560	    -11.48148378	      0.00000000	    -14.63619383	     -9.91028879	     10.01579155	     25.60732129	      2.28334950	     23.40965024	     18.68536569	    118.47096887	     14.40988312	      7.28077226	     19.90737738	     25.24641493	    113.56425157
      2.78333330	      7.86539472	     -5.22634935	    -22.13723452	      2.76619128	      1.00196950	      0.83249697	     22.12279607	      1.66086211	     -0.84389818	     30.68523231	     14.48755863	      9.74991255	      0.00000000	     16.13848234	     13.47832453	      2.08377318	     12.44796660	     -6.18261156	    -11.78679577	      0.00000000	    -15.07688931	     -9.68838831	      9.33084485	     26.08545209	      2.37744904	     21.83890325	     18.61958032	    118.41453844	     14.92268834	      7.08101236	     21.73985344	     25.66208447	    113.31337197
      2.80000000	      7.86461373	     -5.46261800	    -22.46423317	      2.76525123	      1.00186918	      0.83130345	     22.36220950	      1.67161703	     -1.32409967	     30.77312665	     13.15178678	     10.30837348	      0.00000000	     16.10324324	     13.23446924	      1.86621787	     12.34603788	     -6.31348123	    -11.89021222	      0.00000000	    -15.48059475	     -9.60928699	      8.85597264	     26.61758519	      2.48437585	     21.33756287	     18.64655236	    118.37150642	     15.21531065	      6.88762429	     22.18557047	     26.24384884	    113.25644035
      2.81666670	      7.96781905	     -6.07771678	    -22.12628175	      2.76533213	      1.00256531	      0.82983442	     22.11835990	      1.81442871	     -2.46489659	     30.63101091	     11.83574186	     10.90281043	      0.00000000	     15.60093683	     12.85671756	      2.60979861	     12.18364457	     -6.34233537	    -12.11005833	      0.00000000	    -16.15078824	     -9.09569907	      7.80098379	     26.89660088	      3.04669843	     18.59904381	     18.86300859	    118.07493132	     15.48590295	      6.32475101	     24.26687587	     26.84651894	    112.89384366
      2.83333330	      8.05586703	     -6.32656242	    -22.34255206	      2.76538013	      1.00313534	      0.82960305	     22.15878990	      1.93558051	     -2.62225351	     30.68647555	     10.52218469	     11.08944461	      0.00000000	     15.41313849	     12.63396586	      2.51224864	     12.17053965	     -6.49376285	    -12.28144882	      0.00000000	    -16.43378816	     -9.11094058	      7.06172355	     27.14622853	      3.50408121	     18.15318475	     19.06696380	    118.03963027	     15.29591634	      5.76826776	     24.59193066	     27.82784459	    112.85614202
      2.85000000	      8.44381328	     -6.91523680	    -21.88591951	      2.76682654	      1.00453022	      0.82908557	     21.33323156	      2.24484199	     -2.74962676	     30.27197337	      9.91375446	     10.73501224	      0.00000000	     14.69890685	     12.38297725	      3.21037555	     12.33221387	     -6.29069809	    -12.55861610	      0.00000000	    -17.04292146	     -8.72578696	      5.84434703	     27.02733090	      4.22149530	     16.05463366	     19.35471803	    117.79184974	     15.00307814	      5.17469410	     25.21851689	     28.79647447	    112.66578610
      2.86666670	      8.84049165	     -7.37237340	    -21.79992603	      2.76921567	      1.00574466	      0.82860568	     20.63296701	      2.39204077	     -2.78852917	     30.20367833	      9.94196236	     11.02338524	      0.00000000	     14.05008539	     12.19962519	      3.28818817	     12.56334145	     -5.97654029	    -12.74285393	      0.00000000	    -17.37172965	     -8.39628564	      5.13414935	     26.66313229	      4.59527268	     14.80363980	     19.73813572	    117.73182193	     14.50414445	      4.75034312	     25.60608129	     29.90670446	    112.58081469
      2.88333330	      9.37559354	     -8.14382894	    -21.44037319	      2.77247413	      1.00755829	      0.82775183	     19.56416796	      2.71847566	     -2.94603262	     30.13181375	     10.39671955	     11.41858886	      0.00000000	     13.15314881	     11.83986073	      3.65196766	     13.00878803	     -5.35814094	    -12.85458887	      0.00000000	    -17.80611242	     -7.73784503	      4.50905825	     26.06235717	      4.83261475	     13.04082785	     20.19660531	    117.67620796	     13.95372492	      4.56147234	     26.00746561	     30.99020741	    112.51101325
      2.90000000	      9.77048767	     -8.94223022	    -21.23058957	      2.77523295	      1.00901994	      0.82695031	     18.88896797	      3.14141378	     -3.31103172	     30.39689977	     10.50518161	     11.52632821	      0.00000000	     12.50595440	     11.37170953	      4.03980819	     13.58177938	     -4.81793793	    -13.11985378	      0.00000000	    -18.06460021	     -7.01980068	      4.07177406	     25.46336122	      5.03390098	     11.35439859	     20.73057871	    117.68718075	     13.40812796	      4.35525965	     26.24858062	     32.25748834	    112.43331143
      2.91666670	      9.99403141	     -9.66518296	    -21.11084842	      2.77682996	      1.00997133	      0.82590135	     18.82506762	      3.54949275	     -3.69010485	     31.15404525	      9.98326994	     11.46584148	      0.00000000	     12.18564692	     10.85779416	      4.21710766	     14.18281392	     -4.47113742	    -13.25396668	      0.00000000	    -18.29080369	     -6.27279130	      3.69755811	     25.08442422	      5.15186344	     10.45097798	     21.25298227	    117.67988970	     13.18774075	      4.08633058	     26.49706999	     33.42231092	    112.42926922
      2.93333330	     10.17729861	    -10.39397544	    -20.71828219	      2.77769131	      1.01053062	      0.82454238	     19.03522289	      3.81219437	     -4.72464014	     32.14339847	      8.78881023	     11.25474118	      0.00000000	     12.25793377	     10.34293066	      4.43261960	     15.35028854	     -4.08362096	    -13.27146172	      0.00000000	    -18.71579090	     -5.42632724	      3.20842056	     25.00739479	      5.31181758	      9.25821693	     21.47887427	    117.62997874	     13.37478610	      3.92725574	     26.88300855	     34.03556087	    112.43774487
      2.95000000	     10.48471223	    -10.73526743	    -20.96635940	      2.77799911	      1.01087244	      0.82400644	     19.27410972	      3.84560112	     -5.10791672	     33.05921774	      7.97946845	     11.30360486	      0.00000000	     12.23262736	     10.17677566	      4.49001010	     16.16927928	     -3.75319292	    -13.54875565	      0.00000000	    -19.17096834	     -5.17117517	      3.21041818	     25.17544288	      5.34158340	      9.01976938	     21.50697847	    117.61605769	     13.74122987	      3.90518573	     26.97108960	     34.19103125	    112.44173392
      2.96666670	      9.97673403	    -11.91746433	    -20.63734238	      2.77858582	      1.01070168	      0.82297070	     19.43215076	      4.94371549	     -6.17129023	     32.77470683	      6.62815401	     10.90403281	      0.00000000	     13.19611547	      8.98954606	      5.02549311	     18.08569627	     -2.70957346	    -13.68623247	      0.00000000	    -19.09094889	     -3.57536665	      3.03315862	     25.08994976	      5.39382213	      7.52379120	     21.67978319	    117.58704203	     14.12003974	      3.85369075	     27.97975018	     34.16502451	    112.44396755
